{
  "accessors": [
    {
      "bufferView": 2,
      "componentType": 5126,
      "count": 65532,
      "max": [
        291.7900085449219,
        484.8179931640625,
        88.12960052490234
      ],
      "min": [
        47.9369010925293,
        274.6300048828125,
        -72.48470306396484
      ],
      "type": "VEC3"
    },
    {
      "bufferView": 2,
      "byteOffset": 786384,
      "componentType": 5126,
      "count": 65532,
      "max": [
        0.999749481678009,
        0.9999794960021973,
        0.9999498128890991
      ],
      "min": [
        -1.0,
        -0.9991161823272705,
        -0.9999999403953552
      ],
      "type": "VEC3"
    },
    {
      "bufferView": 1,
      "componentType": 5126,
      "count": 65532,
      "max": [
        0.949999988079071,
        0.9499850273132324
      ],
      "min": [
        0.05000000074505806,
        0.05000000074505806
      ],
      "type": "VEC2"
    },
    {
      "bufferView": 0,
      "componentType": 5125,
      "count": 302406,
      "type": "SCALAR"
    },
    {
      "bufferView": 2,
      "byteOffset": 1572768,
      "componentType": 5126,
      "count": 65532,
      "max": [
        285.802001953125,
        340.6679992675781,
        44.017398834228516
      ],
      "min": [
        -18.601699829101563,
        244.73300170898438,
        -117.35600280761719
      ],
      "type": "VEC3"
    },
    {
      "bufferView": 2,
      "byteOffset": 2359152,
      "componentType": 5126,
      "count": 65532,
      "max": [
        0.9999317526817322,
        0.9998787641525269,
        0.9999157190322876
      ],
      "min": [
        -0.9999403953552246,
        -1.0,
        -0.9999151825904846
      ],
      "type": "VEC3"
    },
    {
      "bufferView": 1,
      "byteOffset": 524256,
      "componentType": 5126,
      "count": 65532,
      "max": [
        0.7937660217285156,
        0.8483409881591797
      ],
      "min": [
        0.06914050132036209,
        0.05000000074505806
      ],
      "type": "VEC2"
    },
    {
      "bufferView": 0,
      "byteOffset": 1209624,
      "componentType": 5125,
      "count": 331194,
      "type": "SCALAR"
    },
    {
      "bufferView": 2,
      "byteOffset": 3145536,
      "componentType": 5126,
      "count": 65532,
      "max": [
        281.989990234375,
        289.3659973144531,
        51.202701568603516
      ],
      "min": [
        -7.513889789581299,
        225.6230010986328,
        -131.8249969482422
      ],
      "type": "VEC3"
    },
    {
      "bufferView": 2,
      "byteOffset": 3931920,
      "componentType": 5126,
      "count": 65532,
      "max": [
        0.9999614357948303,
        0.9996553659439087,
        0.9999998211860657
      ],
      "min": [
        -0.9999279975891113,
        -0.9997549653053284,
        -0.9999982118606567
      ],
      "type": "VEC3"
    },
    {
      "bufferView": 1,
      "byteOffset": 1048512,
      "componentType": 5126,
      "count": 65532,
      "max": [
        0.8811900019645691,
        0.8344240188598633
      ],
      "min": [
        0.069022998213768,
        0.05847090110182762
      ],
      "type": "VEC2"
    },
    {
      "bufferView": 0,
      "byteOffset": 2534400,
      "componentType": 5125,
      "count": 326721,
      "type": "SCALAR"
    },
    {
      "bufferView": 2,
      "byteOffset": 4718304,
      "componentType": 5126,
      "count": 65532,
      "max": [
        279.8940124511719,
        269.5979919433594,
        47.275001525878906
      ],
      "min": [
        -9.985679626464844,
        212.63499450683594,
        -133.27099609375
      ],
      "type": "VEC3"
    },
    {
      "bufferView": 2,
      "byteOffset": 5504688,
      "componentType": 5126,
      "count": 65532,
      "max": [
        0.9999660849571228,
        1.0,
        0.9999977350234985
      ],
      "min": [
        -0.9998272657394409,
        -1.0,
        -0.9999927282333374
      ],
      "type": "VEC3"
    },
    {
      "bufferView": 1,
      "byteOffset": 1572768,
      "componentType": 5126,
      "count": 65532,
      "max": [
        0.8769630193710327,
        0.9483309984207153
      ],
      "min": [
        0.07462310045957565,
        0.05000000074505806
      ],
      "type": "VEC2"
    },
    {
      "bufferView": 0,
      "byteOffset": 3841284,
      "componentType": 5125,
      "count": 328350,
      "type": "SCALAR"
    },
    {
      "bufferView": 2,
      "byteOffset": 6291072,
      "componentType": 5126,
      "count": 65532,
      "max": [
        268.7919921875,
        260.3550109863281,
        34.46369934082031
      ],
      "min": [
        -32.37080001831055,
        185.16900634765625,
        -146.55099487304688
      ],
      "type": "VEC3"
    },
    {
      "bufferView": 2,
      "byteOffset": 7077456,
      "componentType": 5126,
      "count": 65532,
      "max": [
        0.9998962879180908,
        0.9998471140861511,
        0.9999977350234985
      ],
      "min": [
        -1.0,
        -0.9999780654907227,
        -0.9999063014984131
      ],
      "type": "VEC3"
    },
    {
      "bufferView": 1,
      "byteOffset": 2097024,
      "componentType": 5126,
      "count": 65532,
      "max": [
        0.854436993598938,
        0.9439290165901184
      ],
      "min": [
        0.05000000074505806,
        0.05000000074505806
      ],
      "type": "VEC2"
    },
    {
      "bufferView": 0,
      "byteOffset": 5154684,
      "componentType": 5125,
      "count": 330942,
      "type": "SCALAR"
    },
    {
      "bufferView": 2,
      "byteOffset": 7863840,
      "componentType": 5126,
      "count": 65532,
      "max": [
        278.3070068359375,
        515.1950073242188,
        89.41950225830078
      ],
      "min": [
        -32.33679962158203,
        177.34100341796875,
        -135.41000366210938
      ],
      "type": "VEC3"
    },
    {
      "bufferView": 2,
      "byteOffset": 8650224,
      "componentType": 5126,
      "count": 65532,
      "max": [
        1.0,
        0.9999760389328003,
        0.9998347163200378
      ],
      "min": [
        -0.9999691843986511,
        -0.9999999403953552,
        -0.9999907612800598
      ],
      "type": "VEC3"
    },
    {
      "bufferView": 1,
      "byteOffset": 2621280,
      "componentType": 5126,
      "count": 65532,
      "max": [
        0.8737429976463318,
        0.9430729746818542
      ],
      "min": [
        0.05366260185837746,
        0.07552959769964218
      ],
      "type": "VEC2"
    },
    {
      "bufferView": 0,
      "byteOffset": 6478452,
      "componentType": 5125,
      "count": 337662,
      "type": "SCALAR"
    },
    {
      "bufferView": 2,
      "byteOffset": 9436608,
      "componentType": 5126,
      "count": 65532,
      "max": [
        291.22100830078125,
        457.989013671875,
        89.85579681396484
      ],
      "min": [
        42.3390998840332,
        358.5509948730469,
        -44.369300842285156
      ],
      "type": "VEC3"
    },
    {
      "bufferView": 2,
      "byteOffset": 10222992,
      "componentType": 5126,
      "count": 65532,
      "max": [
        0.999981701374054,
        0.9895011782646179,
        0.9999448657035828
      ],
      "min": [
        -0.9999954104423523,
        -0.9998804330825806,
        -0.9942901730537415
      ],
      "type": "VEC3"
    },
    {
      "bufferView": 1,
      "byteOffset": 3145536,
      "componentType": 5126,
      "count": 65532,
      "max": [
        0.9407389760017395,
        0.9493380188941956
      ],
      "min": [
        0.06863430142402649,
        0.0720399022102356
      ],
      "type": "VEC2"
    },
    {
      "bufferView": 0,
      "byteOffset": 7829100,
      "componentType": 5125,
      "count": 340764,
      "type": "SCALAR"
    },
    {
      "bufferView": 2,
      "byteOffset": 11009376,
      "componentType": 5126,
      "count": 65532,
      "max": [
        298.44500732421875,
        388.1659851074219,
        69.85169982910156
      ],
      "min": [
        -12.358499526977539,
        321.5880126953125,
        -83.68840026855469
      ],
      "type": "VEC3"
    },
    {
      "bufferView": 2,
      "byteOffset": 11795760,
      "componentType": 5126,
      "count": 65532,
      "max": [
        0.9999939799308777,
        0.9999402165412903,
        0.9997802376747131
      ],
      "min": [
        -0.999992311000824,
        -0.9784371852874756,
        -0.9817494750022888
      ],
      "type": "VEC3"
    },
    {
      "bufferView": 1,
      "byteOffset": 3669792,
      "componentType": 5126,
      "count": 65532,
      "max": [
        0.9240769743919373,
        0.949999988079071
      ],
      "min": [
        0.05000000074505806,
        0.06614720076322556
      ],
      "type": "VEC2"
    },
    {
      "bufferView": 0,
      "byteOffset": 9192156,
      "componentType": 5125,
      "count": 348453,
      "type": "SCALAR"
    },
    {
      "bufferView": 2,
      "byteOffset": 12582144,
      "componentType": 5126,
      "count": 65532,
      "max": [
        298.8399963378906,
        344.46099853515625,
        51.202701568603516
      ],
      "min": [
        -32.37080001831055,
        216.39700317382813,
        -146.50999450683594
      ],
      "type": "VEC3"
    },
    {
      "bufferView": 2,
      "byteOffset": 13368528,
      "componentType": 5126,
      "count": 65532,
      "max": [
        0.9999924302101135,
        0.9998811483383179,
        1.0
      ],
      "min": [
        -0.9999983906745911,
        -1.0,
        -1.0
      ],
      "type": "VEC3"
    },
    {
      "bufferView": 1,
      "byteOffset": 4194048,
      "componentType": 5126,
      "count": 65532,
      "max": [
        0.9389089941978455,
        0.9499930143356323
      ],
      "min": [
        0.05021920055150986,
        0.05000000074505806
      ],
      "type": "VEC2"
    },
    {
      "bufferView": 0,
      "byteOffset": 10585968,
      "componentType": 5125,
      "count": 289701,
      "type": "SCALAR"
    },
    {
      "bufferView": 2,
      "byteOffset": 14154912,
      "componentType": 5126,
      "count": 65533,
      "max": [
        298.8219909667969,
        514.5880126953125,
        89.72319793701172
      ],
      "min": [
        -32.032901763916016,
        177.44400024414063,
        -144.656005859375
      ],
      "type": "VEC3"
    },
    {
      "bufferView": 2,
      "byteOffset": 14941308,
      "componentType": 5126,
      "count": 65533,
      "max": [
        1.0,
        1.0,
        1.0
      ],
      "min": [
        -1.0,
        -1.0,
        -0.9999063014984131
      ],
      "type": "VEC3"
    },
    {
      "bufferView": 1,
      "byteOffset": 4718304,
      "componentType": 5126,
      "count": 65533,
      "max": [
        0.9495580196380615,
        0.9499729871749878
      ],
      "min": [
        0.05000000074505806,
        0.05178210139274597
      ],
      "type": "VEC2"
    },
    {
      "bufferView": 0,
      "byteOffset": 11744772,
      "componentType": 5125,
      "count": 138309,
      "type": "SCALAR"
    },
    {
      "bufferView": 2,
      "byteOffset": 15727704,
      "componentType": 5126,
      "count": 44078,
      "max": [
        298.8399963378906,
        515.1950073242188,
        89.48359680175781
      ],
      "min": [
        -18.760099411010742,
        184.3000030517578,
        -146.55099487304688
      ],
      "type": "VEC3"
    },
    {
      "bufferView": 2,
      "byteOffset": 16256640,
      "componentType": 5126,
      "count": 44078,
      "max": [
        0.9998484253883362,
        1.0,
        0.9997802376747131
      ],
      "min": [
        -0.9999805688858032,
        -0.9998887181282043,
        -0.9999915957450867
      ],
      "type": "VEC3"
    },
    {
      "bufferView": 1,
      "byteOffset": 5242568,
      "componentType": 5126,
      "count": 44078,
      "max": [
        0.949999988079071,
        0.9499620199203491
      ],
      "min": [
        0.05000000074505806,
        0.05000000074505806
      ],
      "type": "VEC2"
    },
    {
      "bufferView": 0,
      "byteOffset": 12298008,
      "componentType": 5125,
      "count": 124092,
      "type": "SCALAR"
    }
  ],
  "asset": {
    "extras": {
      "author": "shaNker (https://sketchfab.com/shanker2)",
      "license": "CC-BY-4.0 (http://creativecommons.org/licenses/by/4.0/)",
      "source": "https://sketchfab.com/3d-models/fox-from-the-little-prince-b36fc56b23ce40e1baccb14ec8bd49c4",
      "title": "Fox from The Little Prince"
    },
    "generator": "Sketchfab-16.28.0",
    "version": "2.0"
  },
  "bufferViews": [
    {
      "buffer": 0,
      "byteLength": 12794376,
      "name": "floatBufferViews",
      "target": 34963
    },
    {
      "buffer": 0,
      "byteLength": 5595192,
      "byteOffset": 12794376,
      "byteStride": 8,
      "name": "floatBufferViews",
      "target": 34962
    },
    {
      "buffer": 0,
      "byteLength": 16785576,
      "byteOffset": 18389568,
      "byteStride": 12,
      "name": "floatBufferViews",
      "target": 34962
    }
  ],
  "buffers": [
    {
      "byteLength": 35175144,
      "uri": "scene.bin"
    }
  ],
  "images": [
    {
      "uri": "textures/texture_mesh_baseColor.png"
    }
  ],
  "materials": [
    {
      "doubleSided": true,
      "name": "texture_mesh",
      "pbrMetallicRoughness": {
        "baseColorTexture": {
          "index": 0
        },
        "metallicFactor": 0.0
      }
    }
  ],
  "meshes": [
    {
      "name": "Object_0",
      "primitives": [
        {
          "attributes": {
            "NORMAL": 1,
            "POSITION": 0,
            "TEXCOORD_0": 2
          },
          "indices": 3,
          "material": 0,
          "mode": 4
        }
      ]
    },
    {
      "name": "Object_1",
      "primitives": [
        {
          "attributes": {
            "NORMAL": 5,
            "POSITION": 4,
            "TEXCOORD_0": 6
          },
          "indices": 7,
          "material": 0,
          "mode": 4
        }
      ]
    },
    {
      "name": "Object_2",
      "primitives": [
        {
          "attributes": {
            "NORMAL": 9,
            "POSITION": 8,
            "TEXCOORD_0": 10
          },
          "indices": 11,
          "material": 0,
          "mode": 4
        }
      ]
    },
    {
      "name": "Object_3",
      "primitives": [
        {
          "attributes": {
            "NORMAL": 13,
            "POSITION": 12,
            "TEXCOORD_0": 14
          },
          "indices": 15,
          "material": 0,
          "mode": 4
        }
      ]
    },
    {
      "name": "Object_4",
      "primitives": [
        {
          "attributes": {
            "NORMAL": 17,
            "POSITION": 16,
            "TEXCOORD_0": 18
          },
          "indices": 19,
          "material": 0,
          "mode": 4
        }
      ]
    },
    {
      "name": "Object_5",
      "primitives": [
        {
          "attributes": {
            "NORMAL": 21,
            "POSITION": 20,
            "TEXCOORD_0": 22
          },
          "indices": 23,
          "material": 0,
          "mode": 4
        }
      ]
    },
    {
      "name": "Object_6",
      "primitives": [
        {
          "attributes": {
            "NORMAL": 25,
            "POSITION": 24,
            "TEXCOORD_0": 26
          },
          "indices": 27,
          "material": 0,
          "mode": 4
        }
      ]
    },
    {
      "name": "Object_7",
      "primitives": [
        {
          "attributes": {
            "NORMAL": 29,
            "POSITION": 28,
            "TEXCOORD_0": 30
          },
          "indices": 31,
          "material": 0,
          "mode": 4
        }
      ]
    },
    {
      "name": "Object_8",
      "primitives": [
        {
          "attributes": {
            "NORMAL": 33,
            "POSITION": 32,
            "TEXCOORD_0": 34
          },
          "indices": 35,
          "material": 0,
          "mode": 4
        }
      ]
    },
    {
      "name": "Object_9",
      "primitives": [
        {
          "attributes": {
            "NORMAL": 37,
            "POSITION": 36,
            "TEXCOORD_0": 38
          },
          "indices": 39,
          "material": 0,
          "mode": 4
        }
      ]
    },
    {
      "name": "Object_10",
      "primitives": [
        {
          "attributes": {
            "NORMAL": 41,
            "POSITION": 40,
            "TEXCOORD_0": 42
          },
          "indices": 43,
          "material": 0,
          "mode": 4
        }
      ]
    }
  ],
  "nodes": [
    {
      "children": [
        1
      ],
      "matrix": [
        0.8637769818305969,
        -0.20314085483551014,
        -0.46111074090003973,
        0.0,
        -0.4981621503829956,
        -0.48169550299644454,
        -0.7209742665290834,
        0.0,
        -0.07565564662218094,
        0.8524689078330995,
        -0.5172746181488035,
        0.0,
        0.0,
        0.0,
        0.0,
        1.0
      ],
      "name": "Sketchfab_model"
    },
    {
      "children": [
        2,
        3,
        4,
        5,
        6,
        7,
        8,
        9,
        10,
        11,
        12
      ],
      "name": "Fox.obj.cleaner.materialmerger.gles"
    },
    {
      "mesh": 0,
      "name": "Object_2"
    },
    {
      "mesh": 1,
      "name": "Object_3"
    },
    {
      "mesh": 2,
      "name": "Object_4"
    },
    {
      "mesh": 3,
      "name": "Object_5"
    },
    {
      "mesh": 4,
      "name": "Object_6"
    },
    {
      "mesh": 5,
      "name": "Object_7"
    },
    {
      "mesh": 6,
      "name": "Object_8"
    },
    {
      "mesh": 7,
      "name": "Object_9"
    },
    {
      "mesh": 8,
      "name": "Object_10"
    },
    {
      "mesh": 9,
      "name": "Object_11"
    },
    {
      "mesh": 10,
      "name": "Object_12"
    }
  ],
  "samplers": [
    {
      "magFilter": 9729,
      "minFilter": 9987,
      "wrapS": 10497,
      "wrapT": 10497
    }
  ],
  "scene": 0,
  "scenes": [
    {
      "name": "Sketchfab_Scene",
      "nodes": [
        0
      ]
    }
  ],
  "textures": [
    {
      "sampler": 0,
      "source": 0
    }
  ]
}
