{
  "accessors": [
    {
      "bufferView": 2,
      "componentType": 5126,
      "count": 65532,
      "max": [
        2.9028689861297607,
        1.1126984357833862,
        1.5234012603759766
      ],
      "min": [
        -0.21807260811328888,
        -1.3819810152053833,
        -0.5142627358436584
      ],
      "type": "VEC3"
    },
    {
      "bufferView": 2,
      "byteOffset": 786384,
      "componentType": 5126,
      "count": 65532,
      "max": [
        0.9999191164970398,
        0.9999996423721313,
        0.8766867518424988
      ],
      "min": [
        -0.9999932646751404,
        -0.999997615814209,
        -0.9999627470970154
      ],
      "type": "VEC3"
    },
    {
      "bufferView": 1,
      "componentType": 5126,
      "count": 65532,
      "max": [
        0.9102877378463745,
        0.9908798933029175
      ],
      "min": [
        0.10285208374261856,
        0.009137306362390518
      ],
      "type": "VEC2"
    },
    {
      "bufferView": 1,
      "byteOffset": 524256,
      "componentType": 5126,
      "count": 65532,
      "max": [
        0.9102877378463745,
        0.9908798933029175
      ],
      "min": [
        0.10285208374261856,
        0.009137306362390518
      ],
      "type": "VEC2"
    },
    {
      "bufferView": 0,
      "componentType": 5125,
      "count": 361977,
      "type": "SCALAR"
    },
    {
      "bufferView": 2,
      "byteOffset": 1572768,
      "componentType": 5126,
      "count": 65532,
      "max": [
        2.7287158966064453,
        1.425179362297058,
        1.5318498611450195
      ],
      "min": [
        -1.8881300687789917,
        -1.4497426748275757,
        -1.749120831489563
      ],
      "type": "VEC3"
    },
    {
      "bufferView": 2,
      "byteOffset": 2359152,
      "componentType": 5126,
      "count": 65532,
      "max": [
        0.9990513920783997,
        0.999998927116394,
        0.9796977043151855
      ],
      "min": [
        -0.9998487830162048,
        -0.9999947547912598,
        -0.9999628663063049
      ],
      "type": "VEC3"
    },
    {
      "bufferView": 1,
      "byteOffset": 1048512,
      "componentType": 5126,
      "count": 65532,
      "max": [
        0.9923718571662903,
        0.9766045808792114
      ],
      "min": [
        0.015100682154297829,
        0.0036592986434698105
      ],
      "type": "VEC2"
    },
    {
      "bufferView": 1,
      "byteOffset": 1572768,
      "componentType": 5126,
      "count": 65532,
      "max": [
        0.9923718571662903,
        0.9766045808792114
      ],
      "min": [
        0.015100682154297829,
        0.0036592986434698105
      ],
      "type": "VEC2"
    },
    {
      "bufferView": 0,
      "byteOffset": 1447908,
      "componentType": 5125,
      "count": 359064,
      "type": "SCALAR"
    },
    {
      "bufferView": 2,
      "byteOffset": 3145536,
      "componentType": 5126,
      "count": 65532,
      "max": [
        0.10294059664011002,
        1.488071322441101,
        1.3414974212646484
      ],
      "min": [
        -2.3603291511535645,
        -1.4377743005752563,
        -2.005337715148926
      ],
      "type": "VEC3"
    },
    {
      "bufferView": 2,
      "byteOffset": 3931920,
      "componentType": 5126,
      "count": 65532,
      "max": [
        0.9999915361404419,
        0.9999851584434509,
        0.9999198317527771
      ],
      "min": [
        -0.9999212622642517,
        -0.9999912977218628,
        -0.9999822974205017
      ],
      "type": "VEC3"
    },
    {
      "bufferView": 1,
      "byteOffset": 2097024,
      "componentType": 5126,
      "count": 65532,
      "max": [
        0.9973623156547546,
        0.9547054171562195
      ],
      "min": [
        1.4264136552810669e-05,
        0.009084414690732956
      ],
      "type": "VEC2"
    },
    {
      "bufferView": 1,
      "byteOffset": 2621280,
      "componentType": 5126,
      "count": 65532,
      "max": [
        0.9973623156547546,
        0.9547054171562195
      ],
      "min": [
        1.4264136552810669e-05,
        0.009084414690732956
      ],
      "type": "VEC2"
    },
    {
      "bufferView": 0,
      "byteOffset": 2884164,
      "componentType": 5125,
      "count": 360576,
      "type": "SCALAR"
    },
    {
      "bufferView": 2,
      "byteOffset": 4718304,
      "componentType": 5126,
      "count": 65532,
      "max": [
        2.842180013656616,
        1.4111133813858032,
        1.5295710563659668
      ],
      "min": [
        -1.9250143766403198,
        -1.434336543083191,
        -0.8243406414985657
      ],
      "type": "VEC3"
    },
    {
      "bufferView": 2,
      "byteOffset": 5504688,
      "componentType": 5126,
      "count": 65532,
      "max": [
        0.9999939203262329,
        0.9999832510948181,
        0.9977015256881714
      ],
      "min": [
        -0.999970555305481,
        -0.9999956488609314,
        -0.9999961853027344
      ],
      "type": "VEC3"
    },
    {
      "bufferView": 1,
      "byteOffset": 3145536,
      "componentType": 5126,
      "count": 65532,
      "max": [
        0.9973412156105042,
        0.9999783039093018
      ],
      "min": [
        0.00012730620801448822,
        3.8501020753756166e-06
      ],
      "type": "VEC2"
    },
    {
      "bufferView": 1,
      "byteOffset": 3669792,
      "componentType": 5126,
      "count": 65532,
      "max": [
        0.9973412156105042,
        0.9999783039093018
      ],
      "min": [
        0.00012730620801448822,
        3.8501020753756166e-06
      ],
      "type": "VEC2"
    },
    {
      "bufferView": 0,
      "byteOffset": 4326468,
      "componentType": 5125,
      "count": 287547,
      "type": "SCALAR"
    },
    {
      "bufferView": 2,
      "byteOffset": 6291072,
      "componentType": 5126,
      "count": 32698,
      "max": [
        2.4761157035827637,
        1.5078378915786743,
        1.3862371444702148
      ],
      "min": [
        -2.355602502822876,
        -1.4450653791427612,
        -2.091979503631592
      ],
      "type": "VEC3"
    },
    {
      "bufferView": 2,
      "byteOffset": 6683448,
      "componentType": 5126,
      "count": 32698,
      "max": [
        0.9999985694885254,
        0.9999991655349731,
        0.9987317323684692
      ],
      "min": [
        -0.9985847473144531,
        -0.9998452663421631,
        -0.9999836087226868
      ],
      "type": "VEC3"
    },
    {
      "bufferView": 1,
      "byteOffset": 4194048,
      "componentType": 5126,
      "count": 32698,
      "max": [
        0.9951878190040588,
        0.9999474883079529
      ],
      "min": [
        0.00970185361802578,
        4.2106956243515015e-05
      ],
      "type": "VEC2"
    },
    {
      "bufferView": 1,
      "byteOffset": 4455632,
      "componentType": 5126,
      "count": 32698,
      "max": [
        0.9951878190040588,
        0.9999474883079529
      ],
      "min": [
        0.00970185361802578,
        4.2106956243515015e-05
      ],
      "type": "VEC2"
    },
    {
      "bufferView": 0,
      "byteOffset": 5476656,
      "componentType": 5125,
      "count": 134184,
      "type": "SCALAR"
    },
    {
      "bufferView": 2,
      "byteOffset": 7075824,
      "componentType": 5126,
      "count": 65532,
      "max": [
        2.951108455657959,
        1.4142242670059204,
        1.5208168029785156
      ],
      "min": [
        -0.4938419461250305,
        -1.3094927072525024,
        -1.5430337190628052
      ],
      "type": "VEC3"
    },
    {
      "bufferView": 2,
      "byteOffset": 7862208,
      "componentType": 5126,
      "count": 65532,
      "max": [
        0.9999667406082153,
        0.9999995827674866,
        0.9874576926231384
      ],
      "min": [
        -0.9999961853027344,
        -0.999986469745636,
        -0.9999540448188782
      ],
      "type": "VEC3"
    },
    {
      "bufferView": 1,
      "byteOffset": 4717216,
      "componentType": 5126,
      "count": 65532,
      "max": [
        0.9999831914901733,
        0.9981210231781006
      ],
      "min": [
        0.008156867697834969,
        0.006158284842967987
      ],
      "type": "VEC2"
    },
    {
      "bufferView": 1,
      "byteOffset": 5241472,
      "componentType": 5126,
      "count": 65532,
      "max": [
        0.9999831914901733,
        0.9981210231781006
      ],
      "min": [
        0.008156867697834969,
        0.006158284842967987
      ],
      "type": "VEC2"
    },
    {
      "bufferView": 0,
      "byteOffset": 6013392,
      "componentType": 5125,
      "count": 359187,
      "type": "SCALAR"
    },
    {
      "bufferView": 2,
      "byteOffset": 8648592,
      "componentType": 5126,
      "count": 65532,
      "max": [
        2.9137251377105713,
        1.4656401872634888,
        1.1619787216186523
      ],
      "min": [
        -2.1017892360687256,
        -1.4468275308609009,
        -1.6413989067077637
      ],
      "type": "VEC3"
    },
    {
      "bufferView": 2,
      "byteOffset": 9434976,
      "componentType": 5126,
      "count": 65532,
      "max": [
        0.9999853372573853,
        0.9999997019767761,
        0.6558427214622498
      ],
      "min": [
        -0.9753549098968506,
        -0.9999771118164063,
        -0.9991573095321655
      ],
      "type": "VEC3"
    },
    {
      "bufferView": 1,
      "byteOffset": 5765728,
      "componentType": 5126,
      "count": 65532,
      "max": [
        0.9913954734802246,
        0.9324448704719543
      ],
      "min": [
        0.018918391317129135,
        3.2452866435050964e-05
      ],
      "type": "VEC2"
    },
    {
      "bufferView": 1,
      "byteOffset": 6289984,
      "componentType": 5126,
      "count": 65532,
      "max": [
        0.9913954734802246,
        0.9324448704719543
      ],
      "min": [
        0.018918391317129135,
        3.2452866435050964e-05
      ],
      "type": "VEC2"
    },
    {
      "bufferView": 0,
      "byteOffset": 7450140,
      "componentType": 5125,
      "count": 366852,
      "type": "SCALAR"
    },
    {
      "bufferView": 2,
      "byteOffset": 10221360,
      "componentType": 5126,
      "count": 65532,
      "max": [
        0.17639555037021637,
        1.48129141330719,
        1.352956771850586
      ],
      "min": [
        -2.3549389839172363,
        -1.271579384803772,
        -1.9561665058135986
      ],
      "type": "VEC3"
    },
    {
      "bufferView": 2,
      "byteOffset": 11007744,
      "componentType": 5126,
      "count": 65532,
      "max": [
        0.9999992847442627,
        0.9999589920043945,
        0.9979792237281799
      ],
      "min": [
        -0.9990882277488708,
        -0.9999769330024719,
        -0.9999930262565613
      ],
      "type": "VEC3"
    },
    {
      "bufferView": 1,
      "byteOffset": 6814240,
      "componentType": 5126,
      "count": 65532,
      "max": [
        0.9999662041664124,
        0.9967837333679199
      ],
      "min": [
        0.02443912997841835,
        0.10868474841117859
      ],
      "type": "VEC2"
    },
    {
      "bufferView": 1,
      "byteOffset": 7338496,
      "componentType": 5126,
      "count": 65532,
      "max": [
        0.9999662041664124,
        0.9967837333679199
      ],
      "min": [
        0.02443912997841835,
        0.10868474841117859
      ],
      "type": "VEC2"
    },
    {
      "bufferView": 0,
      "byteOffset": 8917548,
      "componentType": 5125,
      "count": 362409,
      "type": "SCALAR"
    },
    {
      "bufferView": 2,
      "byteOffset": 11794128,
      "componentType": 5126,
      "count": 65532,
      "max": [
        2.9468634128570557,
        1.4731019735336304,
        1.5069665908813477
      ],
      "min": [
        -2.0012574195861816,
        -1.4371806383132935,
        -1.6439709663391113
      ],
      "type": "VEC3"
    },
    {
      "bufferView": 2,
      "byteOffset": 12580512,
      "componentType": 5126,
      "count": 65532,
      "max": [
        0.999998152256012,
        0.9999989867210388,
        0.9962968230247498
      ],
      "min": [
        -0.9999657273292542,
        -0.9999998211860657,
        -0.9999962449073792
      ],
      "type": "VEC3"
    },
    {
      "bufferView": 1,
      "byteOffset": 7862752,
      "componentType": 5126,
      "count": 65532,
      "max": [
        0.9926866292953491,
        0.9983603358268738
      ],
      "min": [
        7.755501428619027e-06,
        6.996095180511475e-06
      ],
      "type": "VEC2"
    },
    {
      "bufferView": 1,
      "byteOffset": 8387008,
      "componentType": 5126,
      "count": 65532,
      "max": [
        0.9926866292953491,
        0.9983603358268738
      ],
      "min": [
        7.755501428619027e-06,
        6.996095180511475e-06
      ],
      "type": "VEC2"
    },
    {
      "bufferView": 0,
      "byteOffset": 10367184,
      "componentType": 5125,
      "count": 291327,
      "type": "SCALAR"
    },
    {
      "bufferView": 2,
      "byteOffset": 13366896,
      "componentType": 5126,
      "count": 29989,
      "max": [
        0.1664225310087204,
        1.473598599433899,
        1.4224963188171387
      ],
      "min": [
        -2.3546078205108643,
        -1.2765430212020874,
        -1.9539260864257813
      ],
      "type": "VEC3"
    },
    {
      "bufferView": 2,
      "byteOffset": 13726764,
      "componentType": 5126,
      "count": 29989,
      "max": [
        0.999998152256012,
        0.9999884963035583,
        0.9932652115821838
      ],
      "min": [
        -0.9994689226150513,
        -0.9999932050704956,
        -0.9999745488166809
      ],
      "type": "VEC3"
    },
    {
      "bufferView": 1,
      "byteOffset": 8911264,
      "componentType": 5126,
      "count": 29989,
      "max": [
        0.9989340901374817,
        0.9988766312599182
      ],
      "min": [
        2.9863789677619934e-05,
        2.1933577954769135e-05
      ],
      "type": "VEC2"
    },
    {
      "bufferView": 1,
      "byteOffset": 9151176,
      "componentType": 5126,
      "count": 29989,
      "max": [
        0.9989340901374817,
        0.9988766312599182
      ],
      "min": [
        2.9863789677619934e-05,
        2.1933577954769135e-05
      ],
      "type": "VEC2"
    },
    {
      "bufferView": 0,
      "byteOffset": 11532492,
      "componentType": 5125,
      "count": 116874,
      "type": "SCALAR"
    }
  ],
  "asset": {
    "extras": {
      "author": "Alexei Tiong (https://sketchfab.com/alexeitiong)",
      "license": "CC-BY-4.0 (http://creativecommons.org/licenses/by/4.0/)",
      "source": "https://sketchfab.com/3d-models/the-bedroom-vincent-van-gogh-1888-1e48f6152f004eed9399952c09ca1fd3",
      "title": "The Bedroom, Vincent Van Gogh 1888."
    },
    "generator": "Sketchfab-12.66.0",
    "version": "2.0"
  },
  "bufferViews": [
    {
      "buffer": 0,
      "byteLength": 11999988,
      "name": "floatBufferViews",
      "target": 34963
    },
    {
      "buffer": 0,
      "byteLength": 9391088,
      "byteOffset": 11999988,
      "byteStride": 8,
      "name": "floatBufferViews",
      "target": 34962
    },
    {
      "buffer": 0,
      "byteLength": 14086632,
      "byteOffset": 21391076,
      "byteStride": 12,
      "name": "floatBufferViews",
      "target": 34962
    }
  ],
  "buffers": [
    {
      "byteLength": 35477708,
      "uri": "scene.bin"
    }
  ],
  "extensionsUsed": [
    "KHR_materials_unlit"
  ],
  "images": [
    {
      "uri": "textures/material1_baseColor.jpeg"
    },
    {
      "uri": "textures/material0_baseColor.jpeg"
    }
  ],
  "materials": [
    {
      "doubleSided": true,
      "extensions": {
        "KHR_materials_unlit": {}
      },
      "name": "material1",
      "pbrMetallicRoughness": {
        "baseColorTexture": {
          "index": 0
        },
        "metallicFactor": 0.0
      }
    },
    {
      "doubleSided": true,
      "extensions": {
        "KHR_materials_unlit": {}
      },
      "name": "material0",
      "pbrMetallicRoughness": {
        "baseColorTexture": {
          "index": 1
        },
        "metallicFactor": 0.0
      }
    }
  ],
  "meshes": [
    {
      "name": "Model_material1_0",
      "primitives": [
        {
          "attributes": {
            "NORMAL": 1,
            "POSITION": 0,
            "TEXCOORD_0": 2,
            "TEXCOORD_1": 3
          },
          "indices": 4,
          "material": 0,
          "mode": 4
        }
      ]
    },
    {
      "name": "Model_material1_0",
      "primitives": [
        {
          "attributes": {
            "NORMAL": 6,
            "POSITION": 5,
            "TEXCOORD_0": 7,
            "TEXCOORD_1": 8
          },
          "indices": 9,
          "material": 0,
          "mode": 4
        }
      ]
    },
    {
      "name": "Model_material1_0",
      "primitives": [
        {
          "attributes": {
            "NORMAL": 11,
            "POSITION": 10,
            "TEXCOORD_0": 12,
            "TEXCOORD_1": 13
          },
          "indices": 14,
          "material": 0,
          "mode": 4
        }
      ]
    },
    {
      "name": "Model_material1_0",
      "primitives": [
        {
          "attributes": {
            "NORMAL": 16,
            "POSITION": 15,
            "TEXCOORD_0": 17,
            "TEXCOORD_1": 18
          },
          "indices": 19,
          "material": 0,
          "mode": 4
        }
      ]
    },
    {
      "name": "Model_material1_0",
      "primitives": [
        {
          "attributes": {
            "NORMAL": 21,
            "POSITION": 20,
            "TEXCOORD_0": 22,
            "TEXCOORD_1": 23
          },
          "indices": 24,
          "material": 0,
          "mode": 4
        }
      ]
    },
    {
      "name": "Model_material0_0",
      "primitives": [
        {
          "attributes": {
            "NORMAL": 26,
            "POSITION": 25,
            "TEXCOORD_0": 27,
            "TEXCOORD_1": 28
          },
          "indices": 29,
          "material": 1,
          "mode": 4
        }
      ]
    },
    {
      "name": "Model_material0_0",
      "primitives": [
        {
          "attributes": {
            "NORMAL": 31,
            "POSITION": 30,
            "TEXCOORD_0": 32,
            "TEXCOORD_1": 33
          },
          "indices": 34,
          "material": 1,
          "mode": 4
        }
      ]
    },
    {
      "name": "Model_material0_0",
      "primitives": [
        {
          "attributes": {
            "NORMAL": 36,
            "POSITION": 35,
            "TEXCOORD_0": 37,
            "TEXCOORD_1": 38
          },
          "indices": 39,
          "material": 1,
          "mode": 4
        }
      ]
    },
    {
      "name": "Model_material0_0",
      "primitives": [
        {
          "attributes": {
            "NORMAL": 41,
            "POSITION": 40,
            "TEXCOORD_0": 42,
            "TEXCOORD_1": 43
          },
          "indices": 44,
          "material": 1,
          "mode": 4
        }
      ]
    },
    {
      "name": "Model_material0_0",
      "primitives": [
        {
          "attributes": {
            "NORMAL": 46,
            "POSITION": 45,
            "TEXCOORD_0": 47,
            "TEXCOORD_1": 48
          },
          "indices": 49,
          "material": 1,
          "mode": 4
        }
      ]
    }
  ],
  "nodes": [
    {
      "children": [
        1
      ],
      "matrix": [
        0.9889554977416992,
        0.020818041637539832,
        0.1467435210943222,
        0.0,
        0.002549296710640192,
        0.9875505566596985,
        -0.15728129446506478,
        0.0,
        -0.1481909304857254,
        0.15591828525066354,
        0.9765904545783997,
        0.0,
        0.044839221984148026,
        0.2589378654956818,
        -0.29236906766891474,
        1.0
      ],
      "name": "Sketchfab_model"
    },
    {
      "children": [
        2
      ],
      "matrix": [
        1.0,
        0.0,
        0.0,
        0.0,
        0.0,
        -1.0,
        0.0,
        0.0,
        0.0,
        0.0,
        -1.0,
        0.0,
        0.0,
        0.0,
        0.0,
        1.0
      ],
      "name": "model.fbx"
    },
    {
      "children": [
        3
      ],
      "name": "RootNode"
    },
    {
      "children": [
        4,
        5,
        6,
        7,
        8,
        9,
        10,
        11,
        12,
        13
      ],
      "name": "Model"
    },
    {
      "mesh": 0,
      "name": "Model_material1_0"
    },
    {
      "mesh": 1,
      "name": "Model_material1_0"
    },
    {
      "mesh": 2,
      "name": "Model_material1_0"
    },
    {
      "mesh": 3,
      "name": "Model_material1_0"
    },
    {
      "mesh": 4,
      "name": "Model_material1_0"
    },
    {
      "mesh": 5,
      "name": "Model_material0_0"
    },
    {
      "mesh": 6,
      "name": "Model_material0_0"
    },
    {
      "mesh": 7,
      "name": "Model_material0_0"
    },
    {
      "mesh": 8,
      "name": "Model_material0_0"
    },
    {
      "mesh": 9,
      "name": "Model_material0_0"
    }
  ],
  "samplers": [
    {
      "magFilter": 9729,
      "minFilter": 9987,
      "wrapS": 10497,
      "wrapT": 10497
    }
  ],
  "scene": 0,
  "scenes": [
    {
      "name": "Sketchfab_Scene",
      "nodes": [
        0
      ]
    }
  ],
  "textures": [
    {
      "sampler": 0,
      "source": 0
    },
    {
      "sampler": 0,
      "source": 1
    }
  ]
}
